<?xml version="1.0" encoding="UTF-8" standalone="no" ?>
<!DOCTYPE svg PUBLIC "-//W3C//DTD SVG 1.1//EN" "http://www.w3.org/Graphics/SVG/1.1/DTD/svg11.dtd">
<svg xmlns="http://www.w3.org/2000/svg" xmlns:xlink="http://www.w3.org/1999/xlink" version="1.1" width="1080"
    height="1080" viewBox="0 0 1080 1080" xml:space="preserve">
    <desc>Created with Fabric.js 5.2.4</desc>
    <defs>
    </defs>
    <rect x="0" y="0" width="100%" height="100%" fill="transparent"></rect>
    <g transform="matrix(1 0 0 1 540 540)" id="208fed06-b8ff-47c6-9a97-731f654b63fd">
    </g>
    <g transform="matrix(1 0 0 1 540 540)" id="bb941c69-2ec8-49d8-95f6-e343ab46058f">
        <rect
            style="stroke: none; stroke-width: 1; stroke-dasharray: none; stroke-linecap: butt; stroke-dashoffset: 0; stroke-linejoin: miter; stroke-miterlimit: 4; fill: rgb(255,255,255); fill-rule: nonzero; opacity: 1; visibility: hidden;"
            vector-effect="non-scaling-stroke" x="-540" y="-540" rx="0" ry="0" width="1080" height="1080" />
    </g>
    <g transform="matrix(2.51 0 0 2.51 537.08 976.26)">
        <path
            style="stroke: none; stroke-width: 1; stroke-dasharray: none; stroke-linecap: butt; stroke-dashoffset: 0; stroke-linejoin: miter; stroke-miterlimit: 4; fill: rgb(238,209,198); fill-rule: nonzero; opacity: 1;"
            vector-effect="non-scaling-stroke" transform=" translate(-250, -413.48)"
            d="M 448.968 413.482 C 448.968 415.45300000000003 359.887 417.05 250.00000000000003 417.05 C 140.11300000000006 417.05 51.03200000000004 415.45300000000003 51.03200000000004 413.482 C 51.03200000000004 411.512 140.11300000000006 409.91400000000004 250.00000000000003 409.91400000000004 C 359.887 409.91400000000004 448.968 411.512 448.968 413.482 z"
            stroke-linecap="round" />
    </g>
    <g transform="matrix(2.51 0 0 2.51 154.55 418.52)">
        <path
            style="stroke: none; stroke-width: 1; stroke-dasharray: none; stroke-linecap: butt; stroke-dashoffset: 0; stroke-linejoin: miter; stroke-miterlimit: 4; fill: rgb(80,93,94); fill-rule: nonzero; opacity: 1;"
            vector-effect="non-scaling-stroke" transform=" translate(-97.62, -192.61)"
            d="M 108.988 155.061 C 108.988 155.061 72.068 210.67700000000002 77.33500000000001 219.693 C 82.602 228.709 102.93800000000002 232.29700000000003 105.12700000000001 228.883 C 106.4 226.898 117.697 197.865 118.39300000000001 177.59300000000002 C 118.895 162.996 108.988 155.061 108.988 155.061 z"
            stroke-linecap="round" />
    </g>
    <g transform="matrix(2.51 0 0 2.51 354.56 519.9)">
        <path
            style="stroke: none; stroke-width: 1; stroke-dasharray: none; stroke-linecap: butt; stroke-dashoffset: 0; stroke-linejoin: miter; stroke-miterlimit: 4; fill: rgb(243,187,170); fill-rule: nonzero; opacity: 1;"
            vector-effect="non-scaling-stroke" transform=" translate(-176.83, -232.72)"
            d="M 185.747 208.901 L 183.893 216.69500000000002 L 174.734 241.18900000000002 L 177.36200000000002 249.52500000000003 C 177.36200000000002 249.52500000000003 175.02800000000002 255.08800000000002 173.82000000000002 255.56600000000003 C 172.69200000000004 256.01200000000006 167.71900000000002 257.17400000000004 167.92200000000003 256.11400000000003 C 168.33400000000003 253.96200000000005 171.64600000000002 251.57900000000004 171.64600000000002 249.58600000000004 C 171.64600000000002 247.59300000000005 169.27 243.65100000000004 169.27 243.65100000000004 L 170.46800000000002 239.84500000000003 L 171.46500000000003 233.45700000000002 L 176.35800000000003 208.901 L 185.747 208.901 z"
            stroke-linecap="round" />
    </g>
    <g transform="matrix(2.51 0 0 2.51 221.99 740.57)">
        <path
            style="stroke: none; stroke-width: 1; stroke-dasharray: none; stroke-linecap: butt; stroke-dashoffset: 0; stroke-linejoin: miter; stroke-miterlimit: 4; fill: rgb(243,125,89); fill-rule: nonzero; opacity: 1;"
            vector-effect="non-scaling-stroke" transform=" translate(-124.34, -320.46)"
            d="M 105.223 231.758 L 104.219 249.63400000000001 C 104.13199999999999 251.18200000000002 104.214 252.734 104.463 254.264 L 112.776 305.377 L 111.121 409.15200000000004 L 117.20599999999999 409.15200000000004 L 138.91699999999997 298.30500000000006 L 144.49999999999997 232.44900000000007 L 105.223 231.758 z"
            stroke-linecap="round" />
    </g>
    <g transform="matrix(2.51 0 0 2.51 293.82 740.57)" id="XMLID_210_">
        <polygon
            style="stroke: none; stroke-width: 1; stroke-dasharray: none; stroke-linecap: butt; stroke-dashoffset: 0; stroke-linejoin: miter; stroke-miterlimit: 4; fill: rgb(243,125,89); fill-rule: nonzero; opacity: 1;"
            vector-effect="non-scaling-stroke"
            points="-16.96,-88.7 -10.53,-16.14 -15.36,88.7 -8.22,88.7 13.56,-22.15 16.96,-88.01 " />
    </g>
    <g transform="matrix(2.51 0 0 2.51 257.06 409.72)">
        <path
            style="stroke: none; stroke-width: 1; stroke-dasharray: none; stroke-linecap: butt; stroke-dashoffset: 0; stroke-linejoin: miter; stroke-miterlimit: 4; fill: rgb(135,128,110); fill-rule: nonzero; opacity: 1;"
            vector-effect="non-scaling-stroke" transform=" translate(-138.33, -189.2)"
            d="M 169.566 154.021 L 160.498 136.16199999999998 L 150.59799999999998 132.70299999999997 L 120.17899999999999 141.61599999999999 L 118.41099999999999 167.65699999999998 L 97.616 239.5 L 109.715 243.433 C 117.074 245.303 124.67500000000001 246.019 132.25400000000002 245.559 C 145.26200000000003 244.77 165.10500000000002 243.391 169.29000000000002 242.10399999999998 L 179.04600000000002 206.41899999999998 L 169.566 154.021 z"
            stroke-linecap="round" />
    </g>
    <g transform="matrix(2.51 0 0 2.51 191.61 365.32)">
        <path
            style="stroke: none; stroke-width: 1; stroke-dasharray: none; stroke-linecap: butt; stroke-dashoffset: 0; stroke-linejoin: miter; stroke-miterlimit: 4; fill: rgb(135,128,110); fill-rule: nonzero; opacity: 1;"
            vector-effect="non-scaling-stroke" transform=" translate(-112.35, -171.54)"
            d="M 134.31 131.049 L 111.523 137.04000000000002 C 107.904 137.99200000000002 104.841 140.389 103.053 143.67700000000002 C 96.503 155.72500000000002 80.75399999999999 183.127 80.75399999999999 186.574 C 80.75399999999999 189.98000000000002 86.76499999999999 204.774 86.76499999999999 204.774 L 110.27799999999999 212.031 L 117.88 185.159 L 112.35 181.26999999999998 L 118.94 169.07199999999997 L 142.333 183.74499999999998 L 143.946 136.40699999999998 L 134.31 131.049 z"
            stroke-linecap="round" />
    </g>
    <g transform="matrix(2.44 -0.6 0.6 2.44 333.22 175.33)" id="XMLID_208_">
        <rect
            style="stroke: none; stroke-width: 1; stroke-dasharray: none; stroke-linecap: butt; stroke-dashoffset: 0; stroke-linejoin: miter; stroke-miterlimit: 4; fill: rgb(91,81,79); fill-rule: nonzero; opacity: 1;"
            vector-effect="non-scaling-stroke" x="-3.39" y="-0.53" rx="0" ry="0" width="6.78" height="1.06" />
    </g>
    <g transform="matrix(2.51 0 0 2.51 326.64 158.58)">
        <path
            style="stroke: none; stroke-width: 1; stroke-dasharray: none; stroke-linecap: butt; stroke-dashoffset: 0; stroke-linejoin: miter; stroke-miterlimit: 4; fill: rgb(95,50,44); fill-rule: nonzero; opacity: 1;"
            vector-effect="non-scaling-stroke" transform=" translate(-165.74, -89.45)"
            d="M 163.934 84.567 C 163.934 84.567 167.437 87.39299999999999 167.542 94.333 L 165.492 93.141 L 163.934 87.55300000000001"
            stroke-linecap="round" />
    </g>
    <g transform="matrix(2.51 0 0 2.51 326.65 158.75)">
        <path
            style="stroke: none; stroke-width: 1; stroke-dasharray: none; stroke-linecap: butt; stroke-dashoffset: 0; stroke-linejoin: miter; stroke-miterlimit: 4; fill: rgb(95,50,44); fill-rule: nonzero; opacity: 1;"
            vector-effect="non-scaling-stroke" transform=" translate(-165.74, -89.52)"
            d="M 167.677 94.566 L 165.37699999999998 93.229 L 163.80499999999998 87.59 L 164.06099999999998 87.519 L 165.60399999999998 93.055 L 167.403 94.10100000000001 C 167.226 87.48100000000001 163.884 84.69800000000001 163.849 84.67100000000002 L 164.016 84.46500000000002 C 164.051 84.49300000000002 167.56799999999998 87.41000000000001 167.673 94.33200000000002 L 167.677 94.566 z"
            stroke-linecap="round" />
    </g>
    <g transform="matrix(2.51 0 0 2.51 267.56 174.71)">
        <path
            style="stroke: none; stroke-width: 1; stroke-dasharray: none; stroke-linecap: butt; stroke-dashoffset: 0; stroke-linejoin: miter; stroke-miterlimit: 4; fill: rgb(61,53,65); fill-rule: nonzero; opacity: 1;"
            vector-effect="non-scaling-stroke" transform=" translate(-142.33, -95.86)"
            d="M 140.332 86.954 C 138.95999999999998 87.884 139.105 91.413 138.867 93.053 C 138.429 96.072 139.53199999999998 102.14099999999999 141.309 104.621 C 141.595 105.021 142.645 104.445 143.136 104.473 C 144.106 104.529 144.52599999999998 103.279 144.633 102.313 C 145.054 98.522 145.47500000000002 94.732 145.895 90.941"
            stroke-linecap="round" />
    </g>
    <g transform="matrix(2.51 0 0 2.51 267.56 174.67)">
        <path
            style="stroke: none; stroke-width: 1; stroke-dasharray: none; stroke-linecap: butt; stroke-dashoffset: 0; stroke-linejoin: miter; stroke-miterlimit: 4; fill: rgb(61,53,65); fill-rule: nonzero; opacity: 1;"
            vector-effect="non-scaling-stroke" transform=" translate(-142.33, -95.85)"
            d="M 140.051 86.673 C 138.277 88.43 138.40699999999998 92.185 138.374 94.515 C 138.333 97.388 138.75799999999998 101.889 140.596 104.238 C 141.58700000000002 105.505 143.409 105.413 144.491 104.05799999999999 C 145.28900000000002 103.05799999999999 145.18900000000002 100.901 145.31300000000002 99.78599999999999 C 145.64000000000001 96.838 145.967 93.88999999999999 146.29500000000002 90.94099999999999 C 146.35100000000003 90.43299999999999 145.555 90.43699999999998 145.49900000000002 90.94099999999999 C 145.17200000000003 93.88899999999998 144.86700000000002 96.83999999999999 144.51700000000002 99.78599999999999 C 144.35000000000002 101.189 144.58800000000002 104.26499999999999 142.40300000000002 104.204 C 140.829 104.16099999999999 140.598 102.425 140.22100000000003 101.226 C 139.50800000000004 98.96 139.09700000000004 96.507 139.18200000000004 94.129 C 139.25500000000005 92.087 139.08500000000004 88.74900000000001 140.61400000000003 87.235 C 140.978 86.874 140.415 86.312 140.051 86.673 L 140.051 86.673 z"
            stroke-linecap="round" />
    </g>
    <g transform="matrix(2.51 0 0 2.51 280.25 253.78)">
        <path
            style="stroke: none; stroke-width: 1; stroke-dasharray: none; stroke-linecap: butt; stroke-dashoffset: 0; stroke-linejoin: miter; stroke-miterlimit: 4; fill: rgb(243,187,170); fill-rule: nonzero; opacity: 1;"
            vector-effect="non-scaling-stroke" transform=" translate(-147.4, -127.23)"
            d="M 144.084 108.827 C 144.084 108.827 142.961 127.5 134.31 131.049 C 134.31 131.049 137.798 148.228 152.766 145.30200000000002 C 167.73399999999998 142.37600000000003 156.35899999999998 133.05400000000003 156.35899999999998 133.05400000000003 C 156.35899999999998 133.05400000000003 155.66299999999998 126.82300000000004 159.39999999999998 123.63900000000004 L 144.084 108.827 z"
            stroke-linecap="round" />
    </g>
    <g transform="matrix(2.51 0 0 2.51 277.6 204.73)">
        <path
            style="stroke: none; stroke-width: 1; stroke-dasharray: none; stroke-linecap: butt; stroke-dashoffset: 0; stroke-linejoin: miter; stroke-miterlimit: 4; fill: rgb(243,187,170); fill-rule: nonzero; opacity: 1;"
            vector-effect="non-scaling-stroke" transform=" translate(-146.29, -107.72)" d="M 146.291 107.719"
            stroke-linecap="round" />
    </g>
    <g transform="matrix(2.51 0 0 2.51 291.1 237.53)">
        <path
            style="stroke: none; stroke-width: 1; stroke-dasharray: none; stroke-linecap: butt; stroke-dashoffset: 0; stroke-linejoin: miter; stroke-miterlimit: 4; fill: rgb(243,187,170); fill-rule: nonzero; opacity: 0.7;"
            vector-effect="non-scaling-stroke" transform=" translate(-151.67, -120.77)"
            d="M 159.401 123.639 L 144.084 108.827 C 144.084 108.827 141.747 129.383 156.333 132.704 C 156.252 131.361 156.187 126.378 159.401 123.639 z"
            stroke-linecap="round" />
    </g>
    <g transform="matrix(2.51 0 0 2.51 302.82 200.48)">
        <path
            style="stroke: none; stroke-width: 1; stroke-dasharray: none; stroke-linecap: butt; stroke-dashoffset: 0; stroke-linejoin: miter; stroke-miterlimit: 4; fill: rgb(243,187,170); fill-rule: nonzero; opacity: 1;"
            vector-effect="non-scaling-stroke" transform=" translate(-156.34, -106.12)"
            d="M 166.55 90.116 C 167.443 91.259 167.973 92.639 168.14700000000002 94.079 C 168.48600000000002 96.88 169.09400000000002 105.109 169.45300000000003 108.69999999999999 C 169.97100000000003 113.87599999999999 168.82700000000003 124.53799999999998 163.68800000000005 125.74099999999999 C 159.54500000000004 126.71099999999998 150.36700000000005 126.59499999999998 145.70900000000006 114.94899999999998 C 141.05100000000007 103.30299999999998 144.09100000000007 92.83499999999998 144.09100000000007 92.83499999999998 C 144.09100000000007 92.83499999999998 149.65500000000006 86.18399999999998 155.60800000000006 86.18399999999998 C 159.608 86.185 162.798 85.311 166.55 90.116 z"
            stroke-linecap="round" />
    </g>
    <g transform="matrix(2.51 0 0 2.51 324.17 173.72)">
        <path
            style="stroke: none; stroke-width: 1; stroke-dasharray: none; stroke-linecap: butt; stroke-dashoffset: 0; stroke-linejoin: miter; stroke-miterlimit: 4; fill: rgb(95,50,44); fill-rule: nonzero; opacity: 1;"
            vector-effect="non-scaling-stroke" transform=" translate(-164.76, -95.43)"
            d="M 167.51 96.494 C 167.93099999999998 95.887 164.069 93.533 162.67999999999998 94.56099999999999 C 161.29099999999997 95.588 162.283 96.851 163.01899999999998 96.225 C 164.111 95.296 167.233 96.892 167.51 96.494 z"
            stroke-linecap="round" />
    </g>
    <g transform="matrix(2.51 0 0 2.51 295.7 176.92)">
        <path
            style="stroke: none; stroke-width: 1; stroke-dasharray: none; stroke-linecap: butt; stroke-dashoffset: 0; stroke-linejoin: miter; stroke-miterlimit: 4; fill: rgb(95,50,44); fill-rule: nonzero; opacity: 1;"
            vector-effect="non-scaling-stroke" transform=" translate(-153.48, -96.7)"
            d="M 150.66 98.289 C 150.079 97.805 153.652 94.52 155.352 95.168 C 157.052 95.81500000000001 156.28 97.301 155.361 96.879 C 153.998 96.252 151.041 98.606 150.66 98.289 z"
            stroke-linecap="round" />
    </g>
    <g transform="matrix(2.51 0 0 2.51 323.08 184.02)">
        <path
            style="stroke: none; stroke-width: 1; stroke-dasharray: none; stroke-linecap: butt; stroke-dashoffset: 0; stroke-linejoin: miter; stroke-miterlimit: 4; fill: rgb(95,50,44); fill-rule: nonzero; opacity: 1;"
            vector-effect="non-scaling-stroke" transform=" translate(-164.32, -99.52)"
            d="M 165.485 99.353 C 165.485 99.353 165.02200000000002 97.714 164.05300000000003 98.107 C 163.08500000000004 98.5 162.72000000000003 100.098 163.848 100.789 C 164.976 101.48 165.559 100.195 165.485 99.353 z"
            stroke-linecap="round" />
    </g>
    <g transform="matrix(2.51 0 0 2.51 296.87 185.86)">
        <path
            style="stroke: none; stroke-width: 1; stroke-dasharray: none; stroke-linecap: butt; stroke-dashoffset: 0; stroke-linejoin: miter; stroke-miterlimit: 4; fill: rgb(95,50,44); fill-rule: nonzero; opacity: 1;"
            vector-effect="non-scaling-stroke" transform=" translate(-153.94, -100.24)"
            d="M 155.101 100.081 C 155.101 100.081 154.638 98.44200000000001 153.669 98.83500000000001 C 152.70100000000002 99.22800000000001 152.336 100.82600000000001 153.464 101.51700000000001 C 154.592 102.208 155.174 100.923 155.101 100.081 z"
            stroke-linecap="round" />
    </g>
    <g transform="matrix(2.51 0 0 2.51 317.66 195.29)">
        <path
            style="stroke: none; stroke-width: 1; stroke-dasharray: none; stroke-linecap: butt; stroke-dashoffset: 0; stroke-linejoin: miter; stroke-miterlimit: 4; fill: rgb(221,148,131); fill-rule: nonzero; opacity: 1;"
            vector-effect="non-scaling-stroke" transform=" translate(-162.18, -104)"
            d="M 159.892 99.165 C 159.892 99.165 159.96699999999998 101.96700000000001 162.174 104.04100000000001 C 163.57 105.35300000000001 166.781 107.4 162.94 108.674 C 158.206 110.246 159.892 99.165 159.892 99.165 z"
            stroke-linecap="round" />
    </g>
    <g transform="matrix(2.51 0 0 2.51 290.77 150.14)">
        <path
            style="stroke: none; stroke-width: 1; stroke-dasharray: none; stroke-linecap: butt; stroke-dashoffset: 0; stroke-linejoin: miter; stroke-miterlimit: 4; fill: rgb(61,53,65); fill-rule: nonzero; opacity: 1;"
            vector-effect="non-scaling-stroke" transform=" translate(-151.58, -86.12)"
            d="M 165.506 89.343 C 166.552 88.382 166.735 87.352 166.687 86.172 C 166.66400000000002 86.14399999999999 166.63400000000001 86.112 166.61200000000002 86.084 C 165.78000000000003 85.031 164.812 84.035 164.36300000000003 82.77000000000001 C 164.17400000000004 82.23800000000001 164.06700000000004 81.64300000000001 163.66600000000003 81.24600000000001 C 162.91800000000003 80.50600000000001 161.55800000000002 80.834 160.75200000000004 80.15700000000001 C 160.53000000000003 79.97000000000001 160.36900000000003 79.721 160.15700000000004 79.52300000000001 C 159.75400000000005 79.147 159.20100000000005 78.98500000000001 158.66700000000003 78.849 C 156.51300000000003 78.302 154.29900000000004 77.989 152.07800000000003 77.919 C 150.83300000000003 77.88 148.84500000000003 77.91799999999999 146.90000000000003 79.25 C 142.76100000000002 77.482 139.63300000000004 82.315 137.27100000000004 85.685 C 136.94000000000005 86.157 136.62200000000004 86.658 136.50900000000004 87.224 C 136.37300000000005 87.91000000000001 136.55400000000003 88.61800000000001 136.79500000000004 89.275 C 137.77000000000004 91.935 141.60100000000006 93.19500000000001 144.30800000000005 94.02600000000001 C 147.01600000000005 94.85700000000001 150.27600000000004 93.968 151.87800000000004 91.63300000000001 C 152.26600000000005 91.06700000000001 152.58700000000005 90.403 153.19100000000003 90.07600000000001 C 154.95600000000002 89.12 156.75400000000002 91.81800000000001 158.75600000000003 91.67800000000001 C 159.60000000000002 91.61900000000001 160.31500000000003 91.05600000000001 161.11400000000003 90.77600000000001 C 161.73 90.561 164.821 89.973 165.506 89.343 z"
            stroke-linecap="round" />
    </g>
    <g transform="matrix(2.51 0 0 2.51 293.39 180.27)">
        <path
            style="stroke: none; stroke-width: 1; stroke-dasharray: none; stroke-linecap: butt; stroke-dashoffset: 0; stroke-linejoin: miter; stroke-miterlimit: 4; fill: rgb(91,81,79); fill-rule: nonzero; opacity: 1;"
            vector-effect="non-scaling-stroke" transform=" translate(-152.58, -98.05)"
            d="M 152.576 103.863 C 149.256 103.701 146.55599999999998 100.96 146.55599999999998 97.753 C 146.55599999999998 94.546 149.25699999999998 92.069 152.576 92.231 C 155.89499999999998 92.393 158.595 95.134 158.595 98.341 C 158.596 101.548 155.895 104.025 152.576 103.863 z M 152.577 93.025 C 149.697 92.884 147.35399999999998 95.02300000000001 147.35399999999998 97.79100000000001 C 147.35399999999998 100.56000000000002 149.69699999999997 102.92800000000001 152.577 103.06800000000001 C 155.456 103.20900000000002 157.8 101.07000000000001 157.8 98.30100000000002 C 157.799 95.533 155.456 93.166 152.577 93.025 z"
            stroke-linecap="round" />
    </g>
    <g transform="matrix(2.51 0 0 2.51 329.02 179.24)">
        <path
            style="stroke: none; stroke-width: 1; stroke-dasharray: none; stroke-linecap: butt; stroke-dashoffset: 0; stroke-linejoin: miter; stroke-miterlimit: 4; fill: rgb(91,81,79); fill-rule: nonzero; opacity: 1;"
            vector-effect="non-scaling-stroke" transform=" translate(-166.69, -97.64)"
            d="M 168.048 103.3 C 164.782 103.91499999999999 161.518 101.87899999999999 160.77100000000002 98.75999999999999 C 160.024 95.64099999999999 162.074 92.603 165.34 91.98799999999999 C 168.605 91.37299999999999 171.87 93.40899999999999 172.616 96.52799999999999 C 173.363 99.647 171.314 102.685 168.048 103.3 z M 165.525 92.76 C 162.691 93.29400000000001 160.911 95.91900000000001 161.555 98.61200000000001 C 162.20000000000002 101.305 165.03 103.06200000000001 167.863 102.528 C 170.696 101.994 172.477 99.369 171.832 96.676 C 171.188 93.983 168.358 92.227 165.525 92.76 z"
            stroke-linecap="round" />
    </g>
    <g transform="matrix(2.51 0 0 2.51 311.07 177.65)">
        <path
            style="stroke: none; stroke-width: 1; stroke-dasharray: none; stroke-linecap: butt; stroke-dashoffset: 0; stroke-linejoin: miter; stroke-miterlimit: 4; fill: rgb(91,81,79); fill-rule: nonzero; opacity: 1;"
            vector-effect="non-scaling-stroke" transform=" translate(-159.56, -96.99)"
            d="M 158.4 97.737 L 157.768 96.884 C 158.453 96.376 160.086 95.725 161.356 96.907 L 160.63299999999998 97.68299999999999 C 159.684 96.801 158.412 97.726 158.4 97.737 z"
            stroke-linecap="round" />
    </g>
    <g transform="matrix(2.16 -1.28 1.28 2.16 271.47 184.94)" id="XMLID_188_">
        <rect
            style="stroke: none; stroke-width: 1; stroke-dasharray: none; stroke-linecap: butt; stroke-dashoffset: 0; stroke-linejoin: miter; stroke-miterlimit: 4; fill: rgb(91,81,79); fill-rule: nonzero; opacity: 1;"
            vector-effect="non-scaling-stroke" x="-3.61" y="-0.53" rx="0" ry="0" width="7.22" height="1.06" />
    </g>
    <g transform="matrix(2.51 0 0 2.51 346.68 383.49)">
        <path
            style="stroke: none; stroke-width: 1; stroke-dasharray: none; stroke-linecap: butt; stroke-dashoffset: 0; stroke-linejoin: miter; stroke-miterlimit: 4; fill: rgb(135,128,110); fill-rule: nonzero; opacity: 1;"
            vector-effect="non-scaling-stroke" transform=" translate(-173.73, -178.75)"
            d="M 160.498 136.408 L 170.42499999999998 140.20499999999998 C 171.96599999999998 140.795 173.343 141.74499999999998 174.44099999999997 142.97699999999998 L 181.44799999999998 150.83799999999997 C 182.986 152.56399999999996 183.90099999999998 154.75699999999998 184.04399999999998 157.06499999999997 L 186.93699999999998 203.67899999999997 C 186.98199999999997 204.40699999999998 186.95 205.13699999999997 186.84099999999998 205.85799999999998 L 184.54 221.08899999999997 L 169.753 221.08899999999997 L 165.06199999999998 184.08199999999997 L 160.498 136.408 z"
            stroke-linecap="round" />
    </g>
    <g transform="matrix(2.51 0 0 2.51 264.64 198.63)">
        <path
            style="stroke: none; stroke-width: 1; stroke-dasharray: none; stroke-linecap: butt; stroke-dashoffset: 0; stroke-linejoin: miter; stroke-miterlimit: 4; fill: rgb(243,187,170); fill-rule: nonzero; opacity: 1;"
            vector-effect="non-scaling-stroke" transform=" translate(-141.17, -105.33)"
            d="M 145.896 107.78 C 145.896 107.78 144.51 109.932 142.659 111.321 C 140.808 112.71 137.10299999999998 107.02499999999999 136.48499999999999 101.68599999999999 C 135.868 96.347 143.946 100.98599999999999 143.946 100.98599999999999 L 145.896 107.78 z"
            stroke-linecap="round" />
    </g>
    <g transform="matrix(2.51 0 0 2.51 312.36 224.22)">
        <path
            style="stroke: none; stroke-width: 1; stroke-dasharray: none; stroke-linecap: butt; stroke-dashoffset: 0; stroke-linejoin: miter; stroke-miterlimit: 4; fill: rgb(95,50,44); fill-rule: nonzero; opacity: 1;"
            vector-effect="non-scaling-stroke" transform=" translate(-160.09, -115.45)"
            d="M 155.107 115.943 C 155.107 115.943 158.055 116.425 160.994 115.943 C 163.933 115.461 165.062 113.207 165.062 113.207 C 165.062 113.207 165.39200000000002 116.03599999999999 161.988 117.362 C 158.754 118.622 155.107 115.943 155.107 115.943 z"
            stroke-linecap="round" />
    </g>
    <g transform="matrix(2.51 0 0 2.51 226.74 292.56)">
        <path
            style="stroke: none; stroke-width: 1; stroke-dasharray: none; stroke-linecap: butt; stroke-dashoffset: 0; stroke-linejoin: miter; stroke-miterlimit: 4; fill: rgb(80,93,94); fill-rule: nonzero; opacity: 1;"
            vector-effect="non-scaling-stroke" transform=" translate(-126.18, -142.57)"
            d="M 115.72 135.937 C 115.72 135.937 122.3 146.597 123.626 153.50300000000001 C 123.626 153.50300000000001 135.488 151.342 136.452 150.705 C 137.416 150.068 134.31 135.937 134.31 135.937 L 132.059 131.64100000000002 L 115.72 135.937 z"
            stroke-linecap="round" />
    </g>
    <g transform="matrix(2.51 0 0 2.51 214.03 415.26)" id="XMLID_176_">
        <polygon
            style="stroke: none; stroke-width: 1; stroke-dasharray: none; stroke-linecap: butt; stroke-dashoffset: 0; stroke-linejoin: miter; stroke-miterlimit: 4; fill: rgb(243,187,170); fill-rule: nonzero; opacity: 1;"
            vector-effect="non-scaling-stroke" points="-8.28,-3.27 9.88,-10.75 12.13,-4.37 -12.13,10.75 -12.13,1.06 " />
    </g>
    <g transform="matrix(2.51 0 0 2.51 249.76 382.83)">
        <path
            style="stroke: none; stroke-width: 1; stroke-dasharray: none; stroke-linecap: butt; stroke-dashoffset: 0; stroke-linejoin: miter; stroke-miterlimit: 4; fill: rgb(243,187,170); fill-rule: nonzero; opacity: 1;"
            vector-effect="non-scaling-stroke" transform=" translate(-135.29, -178.32)"
            d="M 129.526 182.42 L 131.029 180.44199999999998 L 131.714 177.84499999999997 L 135.824 172.27599999999998 C 135.824 172.27599999999998 140.502 172.18599999999998 140.86200000000002 172.475 C 141.93900000000002 173.337 137.94500000000002 174.287 137.94500000000002 174.287 L 131.49200000000002 184.37900000000002 L 129.526 182.42 z"
            stroke-linecap="round" />
    </g>
    <g transform="matrix(2.51 0 0 2.51 218.7 394.64)" id="XMLID_13_">
        <polygon
            style="stroke: none; stroke-width: 1; stroke-dasharray: none; stroke-linecap: butt; stroke-dashoffset: 0; stroke-linejoin: miter; stroke-miterlimit: 4; fill: rgb(80,93,94); fill-rule: nonzero; opacity: 1;"
            vector-effect="non-scaling-stroke"
            points="3.15,-32.42 11.29,-4.52 11.87,3.54 -16.1,31.38 -14,34.92 16.1,5.92 16.1,-5.33 10.25,-34.92 " />
    </g>
    <g transform="matrix(2.51 0 0 2.51 254.2 387.6)">
        <path
            style="stroke: none; stroke-width: 1; stroke-dasharray: none; stroke-linecap: butt; stroke-dashoffset: 0; stroke-linejoin: miter; stroke-miterlimit: 4; fill: rgb(243,187,170); fill-rule: nonzero; opacity: 1;"
            vector-effect="non-scaling-stroke" transform=" translate(-137.04, -180.21)"
            d="M 133.276 186.825 L 136.637 186.825 C 136.637 186.825 141.813 183.66299999999998 142.589 181.523 C 143.161 179.945 142.12199999999999 173.603 142.12199999999999 173.603 C 142.12199999999999 173.603 136.75199999999998 173.868 136.28799999999998 174.398 C 135.82399999999998 174.928 131.31599999999997 183.613 131.31599999999997 183.613 L 133.276 186.825 z"
            stroke-linecap="round" />
    </g>
    <g transform="matrix(2.51 0 0 2.51 335.58 553.07)">
        <path
            style="stroke: none; stroke-width: 1; stroke-dasharray: none; stroke-linecap: butt; stroke-dashoffset: 0; stroke-linejoin: miter; stroke-miterlimit: 4; fill: rgb(243,187,170); fill-rule: nonzero; opacity: 1;"
            vector-effect="non-scaling-stroke" transform=" translate(-169.28, -245.78)"
            d="M 171.101 241.702 L 169.269 243.65 C 169.269 243.65 166.842 248.49800000000002 167.114 249.67600000000002 C 167.386 250.854 171.463 245.68900000000002 171.463 245.68900000000002 L 171.101 241.702 z"
            stroke-linecap="round" />
    </g>
    <g transform="matrix(2.51 0 0 2.51 212.92 964.55)" id="XMLID_172_">
        <polygon
            style="stroke: none; stroke-width: 1; stroke-dasharray: none; stroke-linecap: butt; stroke-dashoffset: 0; stroke-linejoin: miter; stroke-miterlimit: 4; fill: rgb(61,53,66); fill-rule: nonzero; opacity: 1;"
            vector-effect="non-scaling-stroke"
            points="-10.22,-5.54 -2.46,-4.81 0.62,-1.23 9.94,3.63 10.79,5.54 -0.44,4.54 -10.79,3.02 " />
    </g>
    <g transform="matrix(2.51 0 0 2.51 281.02 969.02)" id="XMLID_168_">
        <polygon
            style="stroke: none; stroke-width: 1; stroke-dasharray: none; stroke-linecap: butt; stroke-dashoffset: 0; stroke-linejoin: miter; stroke-miterlimit: 4; fill: rgb(61,53,66); fill-rule: nonzero; opacity: 1;"
            vector-effect="non-scaling-stroke"
            points="-10.37,-5.37 -2.6,-4.76 0.53,-1.23 9.92,3.48 10.81,5.37 -0.44,4.55 -10.81,3.19 " />
    </g>
    <g transform="matrix(2.51 0 0 2.51 169.65 484.27)" id="XMLID_14_">
        <polygon
            style="stroke: none; stroke-width: 1; stroke-dasharray: none; stroke-linecap: butt; stroke-dashoffset: 0; stroke-linejoin: miter; stroke-miterlimit: 4; fill: rgb(80,93,94); fill-rule: nonzero; opacity: 1;"
            vector-effect="non-scaling-stroke" points="-6.7,-8.29 6.16,-5.37 6.7,-1.66 -6.7,8.29 " />
    </g>
    <g transform="matrix(2.51 0 0 2.51 226.74 292.56)">
        <path
            style="stroke: none; stroke-width: 1; stroke-dasharray: none; stroke-linecap: butt; stroke-dashoffset: 0; stroke-linejoin: miter; stroke-miterlimit: 4; fill: rgb(80,93,94); fill-rule: nonzero; opacity: 0.3;"
            vector-effect="non-scaling-stroke" transform=" translate(-126.18, -142.57)"
            d="M 115.72 135.937 C 115.72 135.937 122.3 146.597 123.626 153.50300000000001 C 123.626 153.50300000000001 135.488 151.342 136.452 150.705 C 137.416 150.068 134.31 135.937 134.31 135.937 L 132.059 131.64100000000002 L 115.72 135.937 z"
            stroke-linecap="round" />
    </g>
    <g transform="matrix(2.51 0 0 2.51 169.65 484.27)" id="XMLID_164_">
        <polygon
            style="stroke: none; stroke-width: 1; stroke-dasharray: none; stroke-linecap: butt; stroke-dashoffset: 0; stroke-linejoin: miter; stroke-miterlimit: 4; fill: rgb(80,93,94); fill-rule: nonzero; opacity: 0.3;"
            vector-effect="non-scaling-stroke" points="-6.7,-8.29 6.16,-5.37 6.7,-1.66 -6.7,8.29 " />
    </g>
    <g transform="matrix(2.51 0 0 2.51 338.94 417.56)" id="XMLID_167_">
        <polygon
            style="stroke: none; stroke-width: 1; stroke-dasharray: none; stroke-linecap: butt; stroke-dashoffset: 0; stroke-linejoin: miter; stroke-miterlimit: 4; fill: rgb(135,128,110); fill-rule: nonzero; opacity: 0.5;"
            vector-effect="non-scaling-stroke"
            points="-0.33,28.93 -1.39,28.87 0.33,-1.5 -0.53,-28.9 0.53,-28.93 1.39,-1.48 " />
    </g>
    <g transform="matrix(1.1 -2.26 2.26 1.1 203.01 367.72)" id="XMLID_166_">
        <rect
            style="stroke: none; stroke-width: 1; stroke-dasharray: none; stroke-linecap: butt; stroke-dashoffset: 0; stroke-linejoin: miter; stroke-miterlimit: 4; fill: rgb(135,128,110); fill-rule: nonzero; opacity: 0.5;"
            vector-effect="non-scaling-stroke" x="-10.015" y="-0.53" rx="0" ry="0" width="20.03" height="1.06" />
    </g>
    <g transform="matrix(2.51 0 0 2.51 188.39 424.73)" id="XMLID_162_">
        <polygon
            style="stroke: none; stroke-width: 1; stroke-dasharray: none; stroke-linecap: butt; stroke-dashoffset: 0; stroke-linejoin: miter; stroke-miterlimit: 4; fill: rgb(243,187,170); fill-rule: nonzero; opacity: 0.7;"
            vector-effect="non-scaling-stroke" points="1.92,-7.01 -0.1,-1.88 0.91,5.24 -1.92,7.01 -1.92,-2.68 " />
    </g>
    <g transform="matrix(2.51 0 0 2.51 358.28 495.18)" id="XMLID_161_">
        <polygon
            style="stroke: none; stroke-width: 1; stroke-dasharray: none; stroke-linecap: butt; stroke-dashoffset: 0; stroke-linejoin: miter; stroke-miterlimit: 4; fill: rgb(243,187,170); fill-rule: nonzero; opacity: 0.7;"
            vector-effect="non-scaling-stroke" points="-3.06,-1.74 -3.97,1.74 3.97,-1.74 " />
    </g>
    <g transform="matrix(2.51 0 0 2.51 898.98 716)" id="XMLID_153_">
        <polygon
            style="stroke: none; stroke-width: 1; stroke-dasharray: none; stroke-linecap: butt; stroke-dashoffset: 0; stroke-linejoin: miter; stroke-miterlimit: 4; fill: rgb(135,128,110); fill-rule: nonzero; opacity: 1;"
            vector-effect="non-scaling-stroke"
            points="27.62,84.77 10.8,-17.43 17.42,-81.21 -27.62,-84.77 -14.53,-7.09 21.57,84.77 " />
    </g>
    <g transform="matrix(2.51 0 0 2.51 821.21 727.89)" id="XMLID_152_">
        <polygon
            style="stroke: none; stroke-width: 1; stroke-dasharray: none; stroke-linecap: butt; stroke-dashoffset: 0; stroke-linejoin: miter; stroke-miterlimit: 4; fill: rgb(135,128,110); fill-rule: nonzero; opacity: 1;"
            vector-effect="non-scaling-stroke"
            points="-16.44,-86.95 -27.35,-29.6 -22.55,86.94 -16.85,86.94 0.25,-25.38 27.35,-81.07 " />
    </g>
    <g transform="matrix(2.51 0 0 2.51 744.13 370.49)">
        <path
            style="stroke: none; stroke-width: 1; stroke-dasharray: none; stroke-linecap: butt; stroke-dashoffset: 0; stroke-linejoin: miter; stroke-miterlimit: 4; fill: rgb(114,160,175); fill-rule: nonzero; opacity: 1;"
            vector-effect="non-scaling-stroke" transform=" translate(-331.24, -173.6)"
            d="M 338.41 167.73 C 339.43800000000005 155.494 338.81600000000003 143.257 335.81800000000004 131.021 C 329.32000000000005 134.50799999999998 321.37100000000004 139.058 320.184 141.04999999999998 C 318.76700000000005 143.427 317.10900000000004 164.795 316.165 178.57 C 315.863 182.97299999999998 317.225 187.32399999999998 319.978 190.773 L 340.257 216.177 L 346.362 208.34 L 338.41 167.73 z"
            stroke-linecap="round" />
    </g>
    <g transform="matrix(2.51 0 0 2.51 849.66 386.1)">
        <path
            style="stroke: none; stroke-width: 1; stroke-dasharray: none; stroke-linecap: butt; stroke-dashoffset: 0; stroke-linejoin: miter; stroke-miterlimit: 4; fill: rgb(114,160,175); fill-rule: nonzero; opacity: 1;"
            vector-effect="non-scaling-stroke" transform=" translate(-373.16, -179.84)"
            d="M 388.873 154.999 L 387.234 155.462 C 386.923 152.778 386.673 150.066 386.277 147.35299999999998 C 385.256 140.349 381.493 133.373 384.54699999999997 126.64299999999997 C 375.97299999999996 124.62799999999997 367.782 122.98899999999998 367.782 122.98899999999998 L 344.53 126.49699999999997 C 344.53 126.49699999999997 340.55899999999997 128.47599999999997 335.81699999999995 131.02099999999996 C 337.42999999999995 137.60599999999997 335.3539999999999 144.87899999999996 335.70699999999994 151.46299999999997 C 336.03899999999993 157.66499999999996 336.68799999999993 163.67699999999996 336.87999999999994 169.69799999999998 L 333.6379999999999 170.61499999999998 L 336.17099999999994 183.545 C 336.03599999999994 184.408 335.8859999999999 185.273 335.70699999999994 186.143 L 336.6859999999999 186.178 L 343.4369999999999 220.649 L 342.0419999999999 233.689 L 366.8689999999999 236.68699999999998 L 412.68499999999995 233.689 L 412.68499999999995 214.803 L 412.68499999999995 187.064 L 388.873 154.999 z"
            stroke-linecap="round" />
    </g>
    <g transform="matrix(2.51 0 0 2.51 806.92 228.35)">
        <path
            style="stroke: none; stroke-width: 1; stroke-dasharray: none; stroke-linecap: butt; stroke-dashoffset: 0; stroke-linejoin: miter; stroke-miterlimit: 4; fill: rgb(243,187,170); fill-rule: nonzero; opacity: 1;"
            vector-effect="non-scaling-stroke" transform=" translate(-356.12, -117.14)"
            d="M 344.882 112.179 C 344.882 112.179 350.055 112.293 348.45300000000003 120.937 C 348.129 122.68599999999999 347.129 124.231 345.67900000000003 125.261 C 344.93100000000004 125.792 343.942 126.419 342.63500000000005 127.142 C 342.63500000000005 127.142 341.19100000000003 139.599 369.61100000000005 123.35499999999999 L 362.35300000000007 119.008 C 362.35300000000007 119.008 356.12200000000007 112.443 357.12200000000007 102.574 L 344.882 112.179 z"
            stroke-linecap="round" />
    </g>
    <g transform="matrix(2.51 0 0 2.51 796.97 213.99)">
        <path
            style="stroke: none; stroke-width: 1; stroke-dasharray: none; stroke-linecap: butt; stroke-dashoffset: 0; stroke-linejoin: miter; stroke-miterlimit: 4; fill: rgb(243,187,170); fill-rule: nonzero; opacity: 0.7;"
            vector-effect="non-scaling-stroke" transform=" translate(-352.14, -111.42)"
            d="M 358.46 112.416 C 357.447 109.764 356.73199999999997 106.425 357.12199999999996 102.572 L 350.01699999999994 108.425 L 345.82699999999994 113.476 C 347.17699999999996 114.59 349.15199999999993 116.736 348.56499999999994 120.275 C 351.461 119.078 356.732 115.796 358.46 112.416 z"
            stroke-linecap="round" />
    </g>
    <g transform="matrix(2.51 0 0 2.51 788.31 149.73)">
        <path
            style="stroke: none; stroke-width: 1; stroke-dasharray: none; stroke-linecap: butt; stroke-dashoffset: 0; stroke-linejoin: miter; stroke-miterlimit: 4; fill: rgb(61,53,65); fill-rule: nonzero; opacity: 1;"
            vector-effect="non-scaling-stroke" transform=" translate(-348.76, -85.99)"
            d="M 366.828 82.822 C 367.198 80.44 365.101 78.467 363.207 76.97500000000001 C 361.566 75.683 359.923 74.388 358.173 73.24900000000001 C 356.383 72.08300000000001 354.485 71.08300000000001 352.512 70.26400000000001 C 350.379 69.379 348.036 68.70000000000002 345.778 69.18500000000002 C 342.384 69.91400000000002 339.916 73.09600000000002 336.517 73.80200000000002 C 336.254 73.85600000000002 335.989 73.89500000000002 335.723 73.92800000000003 C 335.309 74.50900000000003 334.897 75.09300000000003 334.493 75.69000000000003 C 332.896 78.05400000000003 332.307 80.35000000000002 331.521 83.06800000000003 C 330.668 86.02000000000002 330.28000000000003 88.13500000000002 331.14000000000004 91.10200000000003 C 332.00000000000006 94.07000000000004 332.34100000000007 96.58300000000003 331.87800000000004 99.62700000000004 C 332.08000000000004 100.40900000000003 332.60400000000004 101.12200000000004 333.37000000000006 101.06400000000004 C 334.07500000000005 101.01000000000003 334.53700000000003 100.33500000000004 334.9580000000001 99.76800000000003 C 336.1690000000001 98.13700000000003 337.8930000000001 96.89300000000003 339.82200000000006 96.25700000000003 C 340.1670000000001 96.14300000000003 340.54300000000006 96.04900000000004 340.88700000000006 96.16400000000003 C 341.43100000000004 96.34500000000003 341.68100000000004 96.95900000000003 342.09700000000004 97.35300000000004 C 343.398 98.58700000000003 345.761 97.36300000000004 347.24800000000005 98.36500000000004 C 347.75800000000004 98.70900000000003 348.076 99.26400000000004 348.43800000000005 99.76100000000004 C 349.93000000000006 101.81000000000004 352.47300000000007 103.04700000000004 355.00600000000003 102.95900000000003 C 357.53900000000004 102.87100000000004 359.98900000000003 101.45800000000003 361.33500000000004 99.31100000000004 L 361.16600000000005 98.81000000000003 C 360.45000000000005 97.37900000000003 361.34100000000007 95.66700000000003 362.40200000000004 94.46900000000004 C 363.46200000000005 93.27100000000004 364.77900000000005 92.13900000000004 365.08200000000005 90.56800000000004 C 365.30600000000004 89.40500000000004 364.92300000000006 88.19100000000005 365.13100000000003 87.02500000000003 C 365.399 85.53 366.596 84.322 366.828 82.822 z"
            stroke-linecap="round" />
    </g>
    <g transform="matrix(2.51 0 0 2.51 778.58 186.06)">
        <path
            style="stroke: none; stroke-width: 1; stroke-dasharray: none; stroke-linecap: butt; stroke-dashoffset: 0; stroke-linejoin: miter; stroke-miterlimit: 4; fill: rgb(243,187,170); fill-rule: nonzero; opacity: 1;"
            vector-effect="non-scaling-stroke" transform=" translate(-344.88, -100.41)"
            d="M 334.632 83.862 C 333.73900000000003 85.005 333.21 86.38499999999999 333.035 87.82499999999999 C 332.696 90.62599999999999 332.088 98.85499999999999 331.72900000000004 102.44599999999998 C 331.21100000000007 107.62199999999999 337.494 119.48699999999998 342.634 120.69099999999999 C 346.778 121.66199999999999 350.81600000000003 120.341 355.474 108.695 C 360.132 97.04899999999999 357.092 86.58099999999999 357.092 86.58099999999999 C 357.092 86.58099999999999 351.52799999999996 79.92999999999999 345.575 79.92999999999999 C 341.573 79.93 338.383 79.056 334.632 83.862 z"
            stroke-linecap="round" />
    </g>
    <g transform="matrix(2.51 0 0 2.51 813.18 183.87)">
        <path
            style="stroke: none; stroke-width: 1; stroke-dasharray: none; stroke-linecap: butt; stroke-dashoffset: 0; stroke-linejoin: miter; stroke-miterlimit: 4; fill: rgb(243,187,170); fill-rule: nonzero; opacity: 1;"
            vector-effect="non-scaling-stroke" transform=" translate(-358.55, -99.47)"
            d="M 356.535 96.611 C 356.535 96.611 360.124 91.37400000000001 362.81600000000003 94.69500000000001 C 365.50800000000004 98.016 358.33000000000004 112.06500000000001 354.89000000000004 101.46400000000001 C 351.45 90.863 356.535 96.611 356.535 96.611 z"
            stroke-linecap="round" />
    </g>
    <g transform="matrix(2.51 0 0 2.51 770.84 209.96)">
        <path
            style="stroke: none; stroke-width: 1; stroke-dasharray: none; stroke-linecap: butt; stroke-dashoffset: 0; stroke-linejoin: miter; stroke-miterlimit: 4; fill: rgb(165,116,116); fill-rule: nonzero; opacity: 1;"
            vector-effect="non-scaling-stroke" transform=" translate(-341.78, -109.8)"
            d="M 336.783 108.464 L 346.776 107.429 C 346.776 107.429 346.546 111.311 343.00100000000003 112.087 C 339.458 112.863 336.783 108.464 336.783 108.464 z"
            stroke-linecap="round" />
    </g>
    <g transform="matrix(2.51 0 0 2.51 771.53 207.17)">
        <path
            style="stroke: none; stroke-width: 1; stroke-dasharray: none; stroke-linecap: butt; stroke-dashoffset: 0; stroke-linejoin: miter; stroke-miterlimit: 4; fill: rgb(255,255,255); fill-rule: nonzero; opacity: 1;"
            vector-effect="non-scaling-stroke" transform=" translate(-342.04, -108.69)"
            d="M 338.459 108.29 C 338.459 108.29 339.432 110.132 342.295 109.80300000000001 C 345.158 109.47400000000002 345.629 107.54700000000001 345.629 107.54700000000001 L 338.459 108.29 z"
            stroke-linecap="round" />
    </g>
    <g transform="matrix(2.51 0 0 2.51 757.34 157.93)">
        <path
            style="stroke: none; stroke-width: 1; stroke-dasharray: none; stroke-linecap: butt; stroke-dashoffset: 0; stroke-linejoin: miter; stroke-miterlimit: 4; fill: rgb(61,53,65); fill-rule: nonzero; opacity: 1;"
            vector-effect="non-scaling-stroke" transform=" translate(-336.42, -89.18)"
            d="M 333.671 90.239 C 333.25 89.632 337.11199999999997 87.278 338.501 88.305 C 339.89 89.33300000000001 338.89799999999997 90.59500000000001 338.162 89.96900000000001 C 337.07 89.042 333.948 90.637 333.671 90.239 z"
            stroke-linecap="round" />
    </g>
    <g transform="matrix(2.51 0 0 2.51 785.8 161.14)">
        <path
            style="stroke: none; stroke-width: 1; stroke-dasharray: none; stroke-linecap: butt; stroke-dashoffset: 0; stroke-linejoin: miter; stroke-miterlimit: 4; fill: rgb(61,53,65); fill-rule: nonzero; opacity: 1;"
            vector-effect="non-scaling-stroke" transform=" translate(-347.7, -90.45)"
            d="M 350.521 92.034 C 351.10200000000003 91.55000000000001 347.529 88.265 345.829 88.91300000000001 C 344.129 89.561 344.901 91.046 345.82 90.62400000000001 C 347.183 89.997 350.14 92.352 350.521 92.034 z"
            stroke-linecap="round" />
    </g>
    <g transform="matrix(2.51 0 0 2.51 758.47 168.23)">
        <path
            style="stroke: none; stroke-width: 1; stroke-dasharray: none; stroke-linecap: butt; stroke-dashoffset: 0; stroke-linejoin: miter; stroke-miterlimit: 4; fill: rgb(61,53,65); fill-rule: nonzero; opacity: 1;"
            vector-effect="non-scaling-stroke" transform=" translate(-336.86, -93.26)"
            d="M 335.696 93.099 C 335.696 93.099 336.15900000000005 91.46000000000001 337.12800000000004 91.85300000000001 C 338.09600000000006 92.24600000000001 338.46100000000007 93.84400000000001 337.333 94.53500000000001 C 336.205 95.22600000000001 335.623 93.94 335.696 93.099 z"
            stroke-linecap="round" />
    </g>
    <g transform="matrix(2.51 0 0 2.51 784.68 170.07)">
        <path
            style="stroke: none; stroke-width: 1; stroke-dasharray: none; stroke-linecap: butt; stroke-dashoffset: 0; stroke-linejoin: miter; stroke-miterlimit: 4; fill: rgb(61,53,65); fill-rule: nonzero; opacity: 1;"
            vector-effect="non-scaling-stroke" transform=" translate(-347.24, -93.99)"
            d="M 346.08 93.826 C 346.08 93.826 346.543 92.187 347.51099999999997 92.58 C 348.479 92.973 348.844 94.571 347.71599999999995 95.262 C 346.589 95.953 346.007 94.668 346.08 93.826 z"
            stroke-linecap="round" />
    </g>
    <g transform="matrix(2.51 0 0 2.51 764.36 183.86)">
        <path
            style="stroke: none; stroke-width: 1; stroke-dasharray: none; stroke-linecap: butt; stroke-dashoffset: 0; stroke-linejoin: miter; stroke-miterlimit: 4; fill: rgb(221,148,131); fill-rule: nonzero; opacity: 1;"
            vector-effect="non-scaling-stroke" transform=" translate(-339.2, -99.47)"
            d="M 341.489 94.643 C 341.489 94.643 341.414 97.44500000000001 339.207 99.519 C 337.811 100.831 334.59999999999997 102.878 338.441 104.152 C 343.174 105.724 341.489 94.643 341.489 94.643 z"
            stroke-linecap="round" />
    </g>
    <g transform="matrix(2.51 0 0 2.51 847.97 410.22)" id="XMLID_110_">
        <polygon
            style="stroke: none; stroke-width: 1; stroke-dasharray: none; stroke-linecap: butt; stroke-dashoffset: 0; stroke-linejoin: miter; stroke-miterlimit: 4; fill: rgb(198,177,171); fill-rule: nonzero; opacity: 1;"
            vector-effect="non-scaling-stroke" points="-30.9,-24.21 12.6,-32.69 30.9,23.06 -14.32,32.69 " />
    </g>
    <g transform="matrix(2.51 0 0 2.51 840.78 420.17)" id="XMLID_274_">
        <polygon
            style="stroke: none; stroke-width: 1; stroke-dasharray: none; stroke-linecap: butt; stroke-dashoffset: 0; stroke-linejoin: miter; stroke-miterlimit: 4; fill: rgb(80,93,94); fill-rule: nonzero; opacity: 1;"
            vector-effect="non-scaling-stroke" points="-30.9,-24.21 12.6,-32.69 30.9,23.07 -14.32,32.69 " />
    </g>
    <g transform="matrix(2.51 0 0 2.51 795.36 444.93)">
        <path
            style="stroke: none; stroke-width: 1; stroke-dasharray: none; stroke-linecap: butt; stroke-dashoffset: 0; stroke-linejoin: miter; stroke-miterlimit: 4; fill: rgb(243,187,170); fill-rule: nonzero; opacity: 1;"
            vector-effect="non-scaling-stroke" transform=" translate(-351.5, -202.92)"
            d="M 357.304 205.998 L 350.44699999999995 207.328 C 350.44699999999995 207.328 347.12299999999993 205.461 346.28 204.536 C 345.43699999999995 203.611 345.688 198.76500000000001 345.91299999999995 198.541 C 346.138 198.316 348.88499999999993 199.965 350.58399999999995 200.19 C 352.28299999999996 200.415 355.88699999999994 200.415 355.88699999999994 200.415 L 357.304 205.998 z"
            stroke-linecap="round" />
    </g>
    <g transform="matrix(2.51 0 0 2.51 788.47 435.25)">
        <path
            style="stroke: none; stroke-width: 1; stroke-dasharray: none; stroke-linecap: butt; stroke-dashoffset: 0; stroke-linejoin: miter; stroke-miterlimit: 4; fill: rgb(243,187,170); fill-rule: nonzero; opacity: 1;"
            vector-effect="non-scaling-stroke" transform=" translate(-348.75, -199.07)"
            d="M 350.588 201.015 C 351.48400000000004 201.069 350.091 198.712 348.61 197.86599999999999 C 347.399 197.17499999999998 346.153 196.636 346.81100000000004 197.86599999999999 C 347.47 199.09599999999998 348.01000000000005 199.96499999999997 348.01000000000005 199.96499999999997"
            stroke-linecap="round" />
    </g>
    <g transform="matrix(2.51 0 0 2.51 789.06 469.73)">
        <path
            style="stroke: none; stroke-width: 1; stroke-dasharray: none; stroke-linecap: butt; stroke-dashoffset: 0; stroke-linejoin: miter; stroke-miterlimit: 4; fill: rgb(243,187,170); fill-rule: nonzero; opacity: 1;"
            vector-effect="non-scaling-stroke" transform=" translate(-349.01, -212.75)"
            d="M 355.5 211.59 C 354.553 211.461 348.059 211.304 348.98 210.401 C 349.278 210.108 350.807 208.97 350.584 208.34 C 350.584 208.34 350.162 208.275 346.89 209.352 C 346.389 209.517 345.89099999999996 209.57500000000002 345.404 209.57 L 342.214 213.665 L 343.561 214.21599999999998 L 345.467 215.66199999999998 C 345.467 215.66199999999998 349.474 217.164 351.19599999999997 217.164 C 352.91799999999995 217.164 354.878 214.26899999999998 354.878 214.26899999999998 C 354.878 214.26899999999998 356.447 211.719 355.5 211.59 z"
            stroke-linecap="round" />
    </g>
    <g transform="matrix(2.51 0 0 2.51 752.27 951.59)">
        <path
            style="stroke: none; stroke-width: 1; stroke-dasharray: none; stroke-linecap: butt; stroke-dashoffset: 0; stroke-linejoin: miter; stroke-miterlimit: 4; fill: rgb(61,53,66); fill-rule: nonzero; opacity: 1;"
            vector-effect="non-scaling-stroke" transform=" translate(-334.45, -403.74)"
            d="M 337.572 393.351 L 346.182 394.534 L 344.997 411.64799999999997 L 322.72200000000004 414.12699999999995 C 322.72200000000004 414.12699999999995 323.57500000000005 403.24299999999994 338.264 403.203 L 337.572 393.351 z"
            stroke-linecap="round" />
    </g>
    <g transform="matrix(2.51 0 0 2.51 947.48 936.61)">
        <path
            style="stroke: none; stroke-width: 1; stroke-dasharray: none; stroke-linecap: butt; stroke-dashoffset: 0; stroke-linejoin: miter; stroke-miterlimit: 4; fill: rgb(61,53,66); fill-rule: nonzero; opacity: 1;"
            vector-effect="non-scaling-stroke" transform=" translate(-411.81, -397.8)"
            d="M 410.355 386.703 L 418.932 385.30199999999996 L 422.521 402.05499999999995 L 401.117 410.30499999999995 C 401.117 410.30499999999995 399.886 400.275 413.91400000000004 395.917 L 410.355 386.703 z"
            stroke-linecap="round" />
    </g>
    <g transform="matrix(2.48 -0.38 0.38 2.48 844.14 586.34)" id="XMLID_94_">
        <rect
            style="stroke: none; stroke-width: 1; stroke-dasharray: none; stroke-linecap: butt; stroke-dashoffset: 0; stroke-linejoin: miter; stroke-miterlimit: 4; fill: rgb(135,128,110); fill-rule: nonzero; opacity: 1;"
            vector-effect="non-scaling-stroke" x="-0.53" y="-12.165" rx="0" ry="0" width="1.06" height="24.33" />
    </g>
    <g transform="matrix(2.51 0 0 2.51 798.7 445.92)" id="XMLID_90_">
        <polygon
            style="stroke: none; stroke-width: 1; stroke-dasharray: none; stroke-linecap: butt; stroke-dashoffset: 0; stroke-linejoin: miter; stroke-miterlimit: 4; fill: rgb(243,187,170); fill-rule: nonzero; opacity: 0.7;"
            vector-effect="non-scaling-stroke" points="-0.82,-3.72 -1.83,-3.08 -0.82,3.72 1.83,3.26 " />
    </g>
    <g transform="matrix(2.51 0 0 2.51 884.31 355.11)">
        <path
            style="stroke: none; stroke-width: 1; stroke-dasharray: none; stroke-linecap: butt; stroke-dashoffset: 0; stroke-linejoin: miter; stroke-miterlimit: 4; fill: rgb(114,160,175); fill-rule: nonzero; opacity: 1;"
            vector-effect="non-scaling-stroke" transform=" translate(-386.88, -167.49)"
            d="M 418.917 166.68 C 418.373 163.989 417.50899999999996 161.376 416.34299999999996 158.89000000000001 C 412.81699999999995 151.376 405.10099999999994 135.00400000000002 403.78 132.763 C 402.899 131.269 393.51399999999995 128.749 384.548 126.64200000000001 C 377.532 142.104 382.906 159.311 393.151 173.555 C 393.177 173.608 393.20300000000003 173.66 393.229 173.713 L 397.239 186.772 L 350.58399999999995 199.065 L 353.69599999999997 208.339 L 413.472 203.257 C 415.892 203.05100000000002 418.00899999999996 201.548 419.001 199.33100000000002 L 422.554 191.39100000000002 C 423.164 190.026 423.33299999999997 188.50500000000002 423.037 187.04000000000002 L 418.917 166.68 z"
            stroke-linecap="round" />
    </g>
    <g transform="matrix(2.51 0 0 2.51 775.99 467.59)" id="XMLID_38_">
        <polygon
            style="stroke: none; stroke-width: 1; stroke-dasharray: none; stroke-linecap: butt; stroke-dashoffset: 0; stroke-linejoin: miter; stroke-miterlimit: 4; fill: rgb(243,187,170); fill-rule: nonzero; opacity: 0.7;"
            vector-effect="non-scaling-stroke" points="1.6,-2.32 -0.25,2.32 -1.6,1.77 " />
    </g>
    <g transform="matrix(2.51 0 0 2.51 899.59 363.54)">
        <path
            style="stroke: rgb(114,160,175); stroke-width: 1; stroke-dasharray: none; stroke-linecap: butt; stroke-dashoffset: 0; stroke-linejoin: miter; stroke-miterlimit: 10; fill: none; fill-rule: nonzero; opacity: 1;"
            vector-effect="non-scaling-stroke" transform=" translate(-392.81, -170.72)"
            d="M 396.179 187.08 L 400.51399999999995 186.056 C 400.51399999999995 186.056 386.78899999999993 162.214 385.10999999999996 154.363"
            stroke-linecap="round" />
    </g>
    <g transform="matrix(2.51 0 0 2.51 768.75 412.98)" id="XMLID_27_">
        <polyline
            style="stroke: rgb(114,160,175); stroke-width: 1; stroke-dasharray: none; stroke-linecap: butt; stroke-dashoffset: 0; stroke-linejoin: miter; stroke-miterlimit: 10; fill: none; fill-rule: nonzero; opacity: 1;"
            vector-effect="non-scaling-stroke" points="4.46,16.72 -4.46,-5.8 -3.59,-16.72 " />
    </g>
    <g transform="matrix(2.51 0 0 2.51 562.89 431.31)">
        <path
            style="stroke: none; stroke-width: 1; stroke-dasharray: none; stroke-linecap: butt; stroke-dashoffset: 0; stroke-linejoin: miter; stroke-miterlimit: 4; fill: rgb(243,187,170); fill-rule: nonzero; opacity: 1;"
            vector-effect="non-scaling-stroke" transform=" translate(-259.39, -197.71)"
            d="M 263.721 151.85 C 268.311 149.968 254.41400000000002 154.339 251.616 160.832 C 248.859 167.22799999999998 253.872 199.045 253.872 204.173 C 253.872 209.30100000000002 250.191 244.02 250.191 244.02 L 255.55100000000002 243.895 C 255.55100000000002 243.895 259.788 224.35000000000002 260.144 219.231 C 260.521 213.811 265.156 215.48 268.596 175.21099999999998 L 263.721 151.85 z"
            stroke-linecap="round" />
    </g>
    <g transform="matrix(2.51 0 0 2.51 551.17 388.92)" id="XMLID_256_">
        <polygon
            style="stroke: none; stroke-width: 1; stroke-dasharray: none; stroke-linecap: butt; stroke-dashoffset: 0; stroke-linejoin: miter; stroke-miterlimit: 4; fill: rgb(243,187,170); fill-rule: nonzero; opacity: 0.7;"
            vector-effect="non-scaling-stroke" points="-3.51,-3.47 3.27,3.79 3.51,-3.79 " />
    </g>
    <g transform="matrix(2.51 0 0 2.51 717.15 458.89)">
        <path
            style="stroke: none; stroke-width: 1; stroke-dasharray: none; stroke-linecap: butt; stroke-dashoffset: 0; stroke-linejoin: miter; stroke-miterlimit: 4; fill: rgb(80,93,94); fill-rule: nonzero; opacity: 1;"
            vector-effect="non-scaling-stroke" transform=" translate(-320.52, -208.56)"
            d="M 329.713 237.884 C 329.713 237.884 330.243 209.81099999999998 327.06100000000004 203.774 C 323.879 197.737 311.29800000000006 179.243 311.29800000000006 179.243 L 313.23300000000006 231.23399999999998 L 329.713 237.884 z"
            stroke-linecap="round" />
    </g>
    <g transform="matrix(2.51 0 0 2.51 717.11 534.42)">
        <path
            style="stroke: none; stroke-width: 1; stroke-dasharray: none; stroke-linecap: butt; stroke-dashoffset: 0; stroke-linejoin: miter; stroke-miterlimit: 4; fill: rgb(135,128,110); fill-rule: nonzero; opacity: 1;"
            vector-effect="non-scaling-stroke" transform=" translate(-320.5, -238.42)"
            d="M 313.836 224.843 C 313.836 224.843 329.712 234.01 329.712 237.884 C 329.712 241.75799999999998 328.115 250.74099999999999 324.408 251.582 C 320.701 252.423 311.297 251.744 311.297 251.744 L 313.836 224.843 z"
            stroke-linecap="round" />
    </g>
    <g transform="matrix(2.51 0 0 2.51 717.11 534.42)">
        <path
            style="stroke: none; stroke-width: 1; stroke-dasharray: none; stroke-linecap: butt; stroke-dashoffset: 0; stroke-linejoin: miter; stroke-miterlimit: 4; fill: rgb(80,93,94); fill-rule: nonzero; opacity: 1;"
            vector-effect="non-scaling-stroke" transform=" translate(-320.5, -238.42)"
            d="M 313.836 224.843 C 313.836 224.843 329.712 234.01 329.712 237.884 C 329.712 241.75799999999998 328.115 250.74099999999999 324.408 251.582 C 320.701 252.423 311.297 251.744 311.297 251.744 L 313.836 224.843 z"
            stroke-linecap="round" />
    </g>
    <g transform="matrix(2.51 0 0 2.51 717.11 534.42)">
        <path
            style="stroke: none; stroke-width: 1; stroke-dasharray: none; stroke-linecap: butt; stroke-dashoffset: 0; stroke-linejoin: miter; stroke-miterlimit: 4; fill: rgb(80,93,94); fill-rule: nonzero; opacity: 0.5;"
            vector-effect="non-scaling-stroke" transform=" translate(-320.5, -238.42)"
            d="M 313.836 224.843 C 313.836 224.843 329.712 234.01 329.712 237.884 C 329.712 241.75799999999998 328.115 250.74099999999999 324.408 251.582 C 320.701 252.423 311.297 251.744 311.297 251.744 L 313.836 224.843 z"
            stroke-linecap="round" />
    </g>
    <g transform="matrix(2.51 0 0 2.51 670.62 717.33)">
        <path
            style="stroke: none; stroke-width: 1; stroke-dasharray: none; stroke-linecap: butt; stroke-dashoffset: 0; stroke-linejoin: miter; stroke-miterlimit: 4; fill: rgb(114,160,175); fill-rule: nonzero; opacity: 1;"
            vector-effect="non-scaling-stroke" transform=" translate(-302.13, -311.19)"
            d="M 316.484 387.079 L 309.091 312.289 L 320.632 266.39099999999996 C 321.366 263.474 321.575 260.44899999999996 321.249 257.45899999999995 L 318.84000000000003 235.30399999999995 L 286.199 238.68499999999995 L 282.858 312.81399999999996 L 303.88800000000003 387.07899999999995 L 316.484 387.07899999999995 z"
            stroke-linecap="round" />
    </g>
    <g transform="matrix(2.51 0 0 2.51 648.67 567.96)">
        <path
            style="stroke: none; stroke-width: 1; stroke-dasharray: none; stroke-linecap: butt; stroke-dashoffset: 0; stroke-linejoin: miter; stroke-miterlimit: 4; fill: rgb(243,187,170); fill-rule: nonzero; opacity: 1;"
            vector-effect="non-scaling-stroke" transform=" translate(-293.35, -251.67)"
            d="M 295.247 250.553 C 295.247 250.553 292.033 255.719 291.519 254.396 C 291.005 253.07299999999998 293.777 248.731 293.777 248.731"
            stroke-linecap="round" />
    </g>
    <g transform="matrix(2.51 0 0 2.51 600.95 718.68)" id="XMLID_247_">
        <polygon
            style="stroke: none; stroke-width: 1; stroke-dasharray: none; stroke-linecap: butt; stroke-dashoffset: 0; stroke-linejoin: miter; stroke-miterlimit: 4; fill: rgb(114,160,175); fill-rule: nonzero; opacity: 1;"
            vector-effect="non-scaling-stroke"
            points="5.02,75.36 7.02,-6.94 19.29,-72.22 -9.54,-75.36 -19.29,-13.55 -6.97,75.36 " />
    </g>
    <g transform="matrix(2.51 0 0 2.51 636.95 415)">
        <path
            style="stroke: none; stroke-width: 1; stroke-dasharray: none; stroke-linecap: butt; stroke-dashoffset: 0; stroke-linejoin: miter; stroke-miterlimit: 4; fill: rgb(243,125,89); fill-rule: nonzero; opacity: 1;"
            vector-effect="non-scaling-stroke" transform=" translate(-288.84, -191.26)"
            d="M 310.694 148.764 C 307.22200000000004 146.568 292.487 143.01100000000002 292.487 143.01100000000002 L 284.09700000000004 156.92100000000002 L 273.12100000000004 147.81900000000002 L 263.72100000000006 151.85100000000003 C 263.72100000000006 151.85100000000003 256.22900000000004 172.68400000000003 257.71700000000004 182.93900000000002 C 258.91 191.15600000000003 266.94300000000004 215.73100000000002 266.46700000000004 220.615 C 265.99100000000004 225.49900000000002 265.456 239.501 265.456 239.501 L 310.502 236.689 L 310.62 237.659 L 318.839 236.36499999999998 L 314.099 205.683 L 320.159 158.845 C 320.16 158.844 313.783 150.717 310.694 148.764 z"
            stroke-linecap="round" />
    </g>
    <g transform="matrix(2.51 0 0 2.51 633.15 432.76)">
        <path
            style="stroke: none; stroke-width: 1; stroke-dasharray: none; stroke-linecap: butt; stroke-dashoffset: 0; stroke-linejoin: miter; stroke-miterlimit: 4; fill: rgb(114,160,175); fill-rule: nonzero; opacity: 1;"
            vector-effect="non-scaling-stroke" transform=" translate(-287.32, -198.32)"
            d="M 265.419 150.962 C 265.419 150.962 259.506 172.188 258.942 176.15699999999998 C 258.64300000000003 178.26299999999998 258.142 182.99099999999999 257.737 186.96499999999997 C 257.31600000000003 191.10399999999998 257.76800000000003 195.27599999999998 259.07300000000004 199.22599999999997 C 261.44500000000005 206.40499999999997 265.14000000000004 218.29299999999998 265.41400000000004 223.46299999999997 C 265.82000000000005 231.12099999999995 265.41400000000004 251.58199999999997 265.41400000000004 251.58199999999997 L 317.05800000000005 247.28099999999998 C 317.05800000000005 247.28099999999998 307.13400000000007 217.83899999999997 306.80300000000005 211.55299999999997 C 306.47200000000004 205.26799999999997 293.46400000000006 180.24499999999998 293.91300000000007 176.72099999999998 C 294.52400000000006 171.92 296.56500000000005 162.003 296.56500000000005 162.003 L 302.21700000000004 145.61899999999997 L 300.34400000000005 145.05299999999997 C 300.34400000000005 145.05299999999997 293.79300000000006 159.44999999999996 292.85300000000007 164.85299999999998 C 291.98800000000006 169.82299999999998 289.14000000000004 177.44899999999998 289.14000000000004 177.44899999999998 L 275.39700000000005 178.112 L 262.9680000000001 176.844 L 263.68300000000005 171.214 L 267.48300000000006 150.236 L 265.419 150.962 z"
            stroke-linecap="round" />
    </g>
    <g transform="matrix(2.51 0 0 2.51 610.28 448.01)">
        <path
            style="stroke: none; stroke-width: 1; stroke-dasharray: none; stroke-linecap: butt; stroke-dashoffset: 0; stroke-linejoin: miter; stroke-miterlimit: 4; fill: rgb(97,118,147); fill-rule: nonzero; opacity: 0.5;"
            vector-effect="non-scaling-stroke" transform=" translate(-278.2, -204.17)"
            d="M 261.693 193.893 C 261.693 193.893 279.195 195.484 279.59299999999996 195.484 C 279.991 195.484 289.80299999999994 194.68800000000002 289.80299999999994 194.68800000000002 L 294.70899999999995 214.44400000000002 L 266.99699999999996 214.44400000000002 L 261.693 193.893 z"
            stroke-linecap="round" />
    </g>
    <g transform="matrix(2.51 0 0 2.51 625.79 511.9)" id="XMLID_314_">
        <polygon
            style="stroke: none; stroke-width: 1; stroke-dasharray: none; stroke-linecap: butt; stroke-dashoffset: 0; stroke-linejoin: miter; stroke-miterlimit: 4; fill: rgb(80,93,94); fill-rule: nonzero; opacity: 1;"
            vector-effect="non-scaling-stroke" points="-23.28,-18.75 26.16,-16.76 24.43,18.75 -26.16,14.78 " />
    </g>
    <g transform="matrix(2.51 0 0 2.51 624.74 533)" id="XMLID_242_">
        <polygon
            style="stroke: none; stroke-width: 1; stroke-dasharray: none; stroke-linecap: butt; stroke-dashoffset: 0; stroke-linejoin: miter; stroke-miterlimit: 4; fill: rgb(135,128,110); fill-rule: nonzero; opacity: 1;"
            vector-effect="non-scaling-stroke" points="28.23,18.65 -30.11,15.03 -23.84,-18.65 30.11,-18.18 " />
    </g>
    <g transform="matrix(2.51 0 0 2.51 545.95 562.91)">
        <path
            style="stroke: none; stroke-width: 1; stroke-dasharray: none; stroke-linecap: butt; stroke-dashoffset: 0; stroke-linejoin: miter; stroke-miterlimit: 4; fill: rgb(243,187,170); fill-rule: nonzero; opacity: 1;"
            vector-effect="non-scaling-stroke" transform=" translate(-252.66, -249.69)"
            d="M 254.955 242.727 C 254.955 242.727 255.89000000000001 244.122 256.19100000000003 244.871 C 256.846 246.50400000000002 258.71200000000005 249.352 258.398 249.71300000000002 C 257.514 250.729 255.23700000000002 248.27300000000002 255.23700000000002 248.27300000000002 L 253.87300000000002 254.64400000000003 C 253.87300000000002 254.64400000000003 250.50100000000003 257.776 247.94600000000003 256.21000000000004 C 247.14800000000002 255.72100000000003 246.88500000000002 253.29300000000003 246.88500000000002 253.29300000000003 C 246.88500000000002 253.29300000000003 247.496 252.34000000000003 248.41000000000003 250.44200000000004 C 249.10300000000004 249.00300000000004 250.19200000000004 244.01900000000003 250.19200000000004 244.01900000000003 L 254.955 242.727 z"
            stroke-linecap="round" />
    </g>
    <g transform="matrix(2.51 0 0 2.51 659.95 568.1)">
        <path
            style="stroke: none; stroke-width: 1; stroke-dasharray: none; stroke-linecap: butt; stroke-dashoffset: 0; stroke-linejoin: miter; stroke-miterlimit: 4; fill: rgb(243,187,170); fill-rule: nonzero; opacity: 1;"
            vector-effect="non-scaling-stroke" transform=" translate(-297.83, -251.74)"
            d="M 299.746 246.951 L 301.06899999999996 251.582 L 302.17199999999997 256.324 L 294.89399999999995 256.538 C 294.89399999999995 256.538 293.96599999999995 252.079 293.60299999999995 251.583 C 293.23999999999995 251.087 293.804 247.097 293.804 247.097 L 299.746 246.951 z"
            stroke-linecap="round" />
    </g>
    <g transform="matrix(2.51 0 0 2.51 615.99 236.77)">
        <path
            style="stroke: none; stroke-width: 1; stroke-dasharray: none; stroke-linecap: butt; stroke-dashoffset: 0; stroke-linejoin: miter; stroke-miterlimit: 4; fill: rgb(61,53,65); fill-rule: nonzero; opacity: 1;"
            vector-effect="non-scaling-stroke" transform=" translate(-280.48, -120.53)"
            d="M 261.423 119.261 C 261.797 124.06899999999999 261.903 128.898 261.741 133.71699999999998 C 261.62399999999997 137.188 261.37899999999996 140.74999999999997 262.453 144.053 C 265.697 142.888 269.27299999999997 142.668 272.635 143.426 C 274.81 143.916 276.893 144.80399999999997 279.099 145.129 C 286.584 146.23 293.298 140.819 298.925 135.762 C 299.528 135.22 300.16200000000003 134.62800000000001 300.35200000000003 133.839 C 300.562 132.966 300.17800000000005 132.07 299.77400000000006 131.268 C 298.50700000000006 128.75 296.9580000000001 126.373 295.1650000000001 124.19800000000001 C 294.30500000000006 123.15400000000001 293.3690000000001 122.12400000000001 292.9120000000001 120.85100000000001 C 292.3730000000001 119.34700000000001 292.56700000000006 117.69500000000001 292.6950000000001 116.10300000000001 C 293.0530000000001 111.64900000000002 292.7990000000001 107.001 290.8110000000001 103.00000000000001 C 288.8220000000001 98.99900000000001 284.7990000000001 95.78300000000002 280.3310000000001 95.78500000000001 C 278.4920000000001 95.78600000000002 276.6980000000001 96.31200000000001 274.9340000000001 96.83300000000001 C 272.6380000000001 97.51200000000001 270.34100000000007 98.19100000000002 268.0440000000001 98.87000000000002 C 266.1170000000001 99.44000000000001 264.1010000000001 100.06100000000002 262.6930000000001 101.49600000000002 C 260.3530000000001 103.87900000000002 260.4220000000001 107.65200000000003 260.6440000000001 110.98500000000003 C 260.9130000000001 115.02400000000003 261.18200000000013 119.06200000000003 261.45100000000014 123.10100000000003"
            stroke-linecap="round" />
    </g>
    <g transform="matrix(2.51 0 0 2.51 622.38 300.47)">
        <path
            style="stroke: none; stroke-width: 1; stroke-dasharray: none; stroke-linecap: butt; stroke-dashoffset: 0; stroke-linejoin: miter; stroke-miterlimit: 4; fill: rgb(243,187,170); fill-rule: nonzero; opacity: 1;"
            vector-effect="non-scaling-stroke" transform=" translate(-282.98, -145.75)"
            d="M 291.725 142.414 C 291.725 142.414 284.50300000000004 134.444 285.50300000000004 124.57499999999999 L 275.235 133.033 C 275.235 133.033 282.884 134.73499999999999 278.565 144.79999999999998 C 278.565 144.79999999999998 277.937 146.55499999999998 273.122 147.81799999999998 C 273.122 147.81799999999998 271.18 151.059 270.426 155.838 C 269.474 161.867 270.769 169.126 278.965 166.298 C 287.161 163.469 295.808 143.849 295.808 143.849 L 291.725 142.414 z"
            stroke-linecap="round" />
    </g>
    <g transform="matrix(2.51 0 0 2.51 620.66 267.87)">
        <path
            style="stroke: none; stroke-width: 1; stroke-dasharray: none; stroke-linecap: butt; stroke-dashoffset: 0; stroke-linejoin: miter; stroke-miterlimit: 4; fill: rgb(243,187,170); fill-rule: nonzero; opacity: 0.7;"
            vector-effect="non-scaling-stroke" transform=" translate(-282.26, -132.78)"
            d="M 286.841 134.419 C 285.82800000000003 131.76700000000002 285.113 128.428 285.503 124.57500000000002 L 278.39799999999997 130.42800000000003 L 277.68199999999996 134.30400000000003 C 279.032 135.41800000000003 280.32199999999995 137.43900000000002 279.73499999999996 140.97700000000003 C 281.955 139.565 284.751 137.387 286.841 134.419 z"
            stroke-linecap="round" />
    </g>
    <g transform="matrix(2.51 0 0 2.51 597.88 236.94)">
        <path
            style="stroke: none; stroke-width: 1; stroke-dasharray: none; stroke-linecap: butt; stroke-dashoffset: 0; stroke-linejoin: miter; stroke-miterlimit: 4; fill: rgb(243,187,170); fill-rule: nonzero; opacity: 1;"
            vector-effect="non-scaling-stroke" transform=" translate(-273.27, -120.55)"
            d="M 263.013 106.389 C 262.121 107.37899999999999 261.59099999999995 108.573 261.416 109.819 C 261.077 112.24300000000001 260.469 119.367 260.11 122.47500000000001 C 259.59200000000004 126.95500000000001 267.66700000000003 138.495 272.363 138.17100000000002 C 273.491 138.09300000000002 279.557 137.085 283.854 127.88400000000001 C 288.553 117.82200000000002 285.471 108.74200000000002 285.471 108.74200000000002 C 285.471 108.74200000000002 279.907 102.98400000000002 273.955 102.98400000000002 C 269.954 102.985 266.764 102.229 263.013 106.389 z"
            stroke-linecap="round" />
    </g>
    <g transform="matrix(2.51 0 0 2.51 631.73 239.95)">
        <path
            style="stroke: none; stroke-width: 1; stroke-dasharray: none; stroke-linecap: butt; stroke-dashoffset: 0; stroke-linejoin: miter; stroke-miterlimit: 4; fill: rgb(243,187,170); fill-rule: nonzero; opacity: 1;"
            vector-effect="non-scaling-stroke" transform=" translate(-286.64, -121.7)"
            d="M 285.097 119.813 C 285.097 119.813 287.301 115.44200000000001 289.7 117.703 C 292.099 119.96300000000001 288.05899999999997 131.439 284.34 123.69200000000001 C 280.62 115.944 285.097 119.813 285.097 119.813 z"
            stroke-linecap="round" />
    </g>
    <g transform="matrix(2.51 0 0 2.51 590.13 260.13)">
        <path
            style="stroke: none; stroke-width: 1; stroke-dasharray: none; stroke-linecap: butt; stroke-dashoffset: 0; stroke-linejoin: miter; stroke-miterlimit: 4; fill: rgb(165,116,116); fill-rule: nonzero; opacity: 1;"
            vector-effect="non-scaling-stroke" transform=" translate(-270.16, -129.69)"
            d="M 265.165 128.345 L 275.158 127.31 C 275.158 127.31 274.928 131.192 271.38300000000004 131.968 C 267.839 132.745 265.165 128.345 265.165 128.345 z"
            stroke-linecap="round" />
    </g>
    <g transform="matrix(2.51 0 0 2.51 590.8 257.34)">
        <path
            style="stroke: none; stroke-width: 1; stroke-dasharray: none; stroke-linecap: butt; stroke-dashoffset: 0; stroke-linejoin: miter; stroke-miterlimit: 4; fill: rgb(255,255,255); fill-rule: nonzero; opacity: 1;"
            vector-effect="non-scaling-stroke" transform=" translate(-270.43, -128.58)"
            d="M 266.84 128.171 C 266.84 128.171 267.813 130.013 270.676 129.685 C 273.539 129.356 274.01099999999997 127.429 274.01099999999997 127.429 L 266.84 128.171 z"
            stroke-linecap="round" />
    </g>
    <g transform="matrix(2.51 0 0 2.51 576.61 216.14)">
        <path
            style="stroke: none; stroke-width: 1; stroke-dasharray: none; stroke-linecap: butt; stroke-dashoffset: 0; stroke-linejoin: miter; stroke-miterlimit: 4; fill: rgb(61,53,65); fill-rule: nonzero; opacity: 1;"
            vector-effect="non-scaling-stroke" transform=" translate(-264.8, -112.24)"
            d="M 262.053 113.303 C 261.632 112.696 265.49399999999997 110.342 266.883 111.369 C 268.272 112.396 267.28 113.659 266.544 113.033 C 265.451 112.105 262.329 113.701 262.053 113.303 z"
            stroke-linecap="round" />
    </g>
    <g transform="matrix(2.51 0 0 2.51 605.09 219.34)">
        <path
            style="stroke: none; stroke-width: 1; stroke-dasharray: none; stroke-linecap: butt; stroke-dashoffset: 0; stroke-linejoin: miter; stroke-miterlimit: 4; fill: rgb(61,53,65); fill-rule: nonzero; opacity: 1;"
            vector-effect="non-scaling-stroke" transform=" translate(-276.08, -113.51)"
            d="M 278.902 115.098 C 279.483 114.614 275.90999999999997 111.329 274.21 111.977 C 272.51 112.62400000000001 273.282 114.11 274.20099999999996 113.688 C 275.564 113.061 278.521 115.415 278.902 115.098 z"
            stroke-linecap="round" />
    </g>
    <g transform="matrix(2.51 0 0 2.51 577.73 226.43)">
        <path
            style="stroke: none; stroke-width: 1; stroke-dasharray: none; stroke-linecap: butt; stroke-dashoffset: 0; stroke-linejoin: miter; stroke-miterlimit: 4; fill: rgb(61,53,65); fill-rule: nonzero; opacity: 1;"
            vector-effect="non-scaling-stroke" transform=" translate(-265.24, -116.32)"
            d="M 264.077 116.162 C 264.077 116.162 264.54 114.52300000000001 265.509 114.91600000000001 C 266.47700000000003 115.30900000000001 266.84200000000004 116.90700000000001 265.714 117.59800000000001 C 264.586 118.289 264.004 117.004 264.077 116.162 z"
            stroke-linecap="round" />
    </g>
    <g transform="matrix(2.51 0 0 2.51 603.94 228.28)">
        <path
            style="stroke: none; stroke-width: 1; stroke-dasharray: none; stroke-linecap: butt; stroke-dashoffset: 0; stroke-linejoin: miter; stroke-miterlimit: 4; fill: rgb(61,53,65); fill-rule: nonzero; opacity: 1;"
            vector-effect="non-scaling-stroke" transform=" translate(-275.63, -117.05)"
            d="M 274.461 116.89 C 274.461 116.89 274.92400000000004 115.252 275.89300000000003 115.644 C 276.86100000000005 116.037 277.22600000000006 117.635 276.098 118.325 C 274.97 119.017 274.388 117.732 274.461 116.89 z"
            stroke-linecap="round" />
    </g>
    <g transform="matrix(2.51 0 0 2.51 580.96 237.68)">
        <path
            style="stroke: none; stroke-width: 1; stroke-dasharray: none; stroke-linecap: butt; stroke-dashoffset: 0; stroke-linejoin: miter; stroke-miterlimit: 4; fill: rgb(221,148,131); fill-rule: nonzero; opacity: 1;"
            vector-effect="non-scaling-stroke" transform=" translate(-266.52, -120.79)"
            d="M 268.809 117.707 C 268.809 117.707 268.73400000000004 119.49799999999999 266.52700000000004 120.823 C 265.13100000000003 121.66099999999999 261.92 122.969 265.761 123.78399999999999 C 270.494 124.788 268.809 117.707 268.809 117.707 z"
            stroke-linecap="round" />
    </g>
    <g transform="matrix(2.51 0 0 2.51 632.27 248.34)" id="XMLID_227_">
        <circle
            style="stroke: none; stroke-width: 1; stroke-dasharray: none; stroke-linecap: butt; stroke-dashoffset: 0; stroke-linejoin: miter; stroke-miterlimit: 4; fill: rgb(61,53,65); fill-rule: nonzero; opacity: 1;"
            vector-effect="non-scaling-stroke" cx="0" cy="0" r="0.426" />
    </g>
    <g transform="matrix(2.51 0 0 2.51 601.68 208.72)">
        <path
            style="stroke: none; stroke-width: 1; stroke-dasharray: none; stroke-linecap: butt; stroke-dashoffset: 0; stroke-linejoin: miter; stroke-miterlimit: 4; fill: rgb(61,53,65); fill-rule: nonzero; opacity: 1;"
            vector-effect="non-scaling-stroke" transform=" translate(-274.78, -109.34)"
            d="M 262.021 105.782 C 260.874 107.833 267.581 101.981 272.88800000000003 103.65299999999999 C 275.35900000000004 104.43199999999999 277.617 105.788 279.53200000000004 107.53399999999999 C 282.778 110.49099999999999 285.39700000000005 114.50299999999999 285.42600000000004 118.89399999999999 C 288.62700000000007 114.41 288.37500000000006 107.77199999999999 284.843 103.544 L 278.96500000000003 100.125 C 278.965 100.125 266.52 97.738 262.021 105.782 z"
            stroke-linecap="round" />
    </g>
    <g transform="matrix(2.51 0 0 2.51 601.64 208.32)">
        <path
            style="stroke: none; stroke-width: 1; stroke-dasharray: none; stroke-linecap: butt; stroke-dashoffset: 0; stroke-linejoin: miter; stroke-miterlimit: 4; fill: rgb(61,53,65); fill-rule: nonzero; opacity: 1;"
            vector-effect="non-scaling-stroke" transform=" translate(-274.76, -109.18)"
            d="M 261.637 105.676 C 261.50600000000003 105.994 261.461 106.122 261.615 106.418 C 261.673 106.52900000000001 261.829 106.631 261.958 106.61500000000001 C 264.63000000000005 106.28600000000002 266.848 104.14600000000002 269.668 103.879 C 277.41 103.146 284.52 111.748 285.028 118.894 C 285.05600000000004 119.284 285.55100000000004 119.44000000000001 285.769 119.095 C 290.51800000000003 111.589 287.443 102.695 279.165 99.781 C 273.24600000000004 97.69800000000001 264.95300000000003 100.40100000000001 261.677 105.581 C 261.40200000000004 106.015 262.091 106.415 262.36400000000003 105.983 C 269.35200000000003 94.93700000000001 290.62800000000004 100.19 286.865 114.783 C 286.742 115.261 285.92400000000004 117.584 285.74 117.534 C 285.82 117.55600000000001 284.944 115.611 285.567 116.632 C 284.72700000000003 115.254 284.555 113.313 283.659 111.842 C 281.942 109.02 279.455 106.571 276.61 104.902 C 274.41 103.611 272.083 102.734 269.503 103.046 C 268.14099999999996 103.21100000000001 263.03299999999996 104.36000000000001 262.40299999999996 105.888 C 262.599 105.415 261.83 105.209 261.637 105.676 z"
            stroke-linecap="round" />
    </g>
    <g transform="matrix(2.51 0 0 2.51 590.01 193.8)">
        <path
            style="stroke: none; stroke-width: 1; stroke-dasharray: none; stroke-linecap: butt; stroke-dashoffset: 0; stroke-linejoin: miter; stroke-miterlimit: 4; fill: rgb(61,53,65); fill-rule: nonzero; opacity: 1;"
            vector-effect="non-scaling-stroke" transform=" translate(-270.16, -103.42)"
            d="M 281.298 100.994 C 278.225 103.981 274.159 105.68299999999999 270.19100000000003 107.30199999999999 C 267.305 108.479 264.257 109.66999999999999 261.16400000000004 109.288 C 258.071 108.905 255.01100000000005 106.34899999999999 255.23200000000006 103.24 C 255.39400000000006 100.97399999999999 257.24500000000006 99.103 259.3570000000001 98.264 C 261.4690000000001 97.425 263.81000000000006 97.426 266.0800000000001 97.508 C 272.4700000000001 97.737 278.8400000000001 98.511 285.1000000000001 99.817"
            stroke-linecap="round" />
    </g>
    <g transform="matrix(2.51 0 0 2.51 589.93 193.75)">
        <path
            style="stroke: none; stroke-width: 1; stroke-dasharray: none; stroke-linecap: butt; stroke-dashoffset: 0; stroke-linejoin: miter; stroke-miterlimit: 4; fill: rgb(61,53,65); fill-rule: nonzero; opacity: 1;"
            vector-effect="non-scaling-stroke" transform=" translate(-270.13, -103.4)"
            d="M 281.017 100.712 C 277.792 103.574 274.06 105.334 270.085 106.918 C 268.633 107.497 267.18 108.143 265.64599999999996 108.47200000000001 C 263.42699999999996 109.164 261.14399999999995 109.04700000000001 258.79699999999997 108.12100000000001 C 255.69399999999996 102.77400000000002 255.99799999999996 99.632 259.70899999999995 98.69600000000001 C 262.85799999999995 96.94200000000001 268.3229999999999 97.95500000000001 271.82399999999996 98.25800000000001 C 276.25399999999996 98.641 280.63699999999994 99.32900000000001 284.99499999999995 100.2 C 285.49499999999995 100.3 285.70899999999995 99.533 285.20699999999994 99.433 C 279.93299999999994 98.379 252.39299999999994 92.07400000000001 254.93899999999994 104.58600000000001 C 257.34599999999995 116.412 277.0489999999999 105.296 281.5799999999999 101.275 C 281.963 100.934 281.399 100.373 281.017 100.712 L 281.017 100.712 z"
            stroke-linecap="round" />
    </g>
    <g transform="matrix(2.51 0 0 2.51 680.63 451.02)" id="XMLID_223_">
        <polygon
            style="stroke: none; stroke-width: 1; stroke-dasharray: none; stroke-linecap: butt; stroke-dashoffset: 0; stroke-linejoin: miter; stroke-miterlimit: 4; fill: rgb(243,187,170); fill-rule: nonzero; opacity: 1;"
            vector-effect="non-scaling-stroke"
            points="-3.88,-44.2 -8.73,-11.77 -12.25,41.58 -7.5,44.2 -6.31,41.43 2.71,3.76 10.26,-22.63 12.25,-36.97 " />
    </g>
    <g transform="matrix(2.51 0 0 2.51 649.82 568.94)">
        <path
            style="stroke: none; stroke-width: 1; stroke-dasharray: none; stroke-linecap: butt; stroke-dashoffset: 0; stroke-linejoin: miter; stroke-miterlimit: 4; fill: rgb(243,187,170); fill-rule: nonzero; opacity: 1;"
            vector-effect="non-scaling-stroke" transform=" translate(-293.8, -252.06)"
            d="M 294.73 249.007 L 293.62600000000003 249.983 C 293.62600000000003 249.983 291.48800000000006 254.531 292.353 255.08 C 293.219 255.62900000000002 295.46000000000004 250.64800000000002 295.46000000000004 250.64800000000002 L 294.73 249.007 z"
            stroke-linecap="round" />
    </g>
    <g transform="matrix(2.51 0 0 2.51 685.48 351.85)">
        <path
            style="stroke: none; stroke-width: 1; stroke-dasharray: none; stroke-linecap: butt; stroke-dashoffset: 0; stroke-linejoin: miter; stroke-miterlimit: 4; fill: rgb(243,125,89); fill-rule: nonzero; opacity: 1;"
            vector-effect="non-scaling-stroke" transform=" translate(-307.98, -166.08)"
            d="M 301.205 152.911 C 301.205 152.911 297.49199999999996 161.751 297.49199999999996 163.303 C 297.49199999999996 164.855 295.80699999999996 179.244 295.80699999999996 179.244 L 319.549 177.24 L 320.15999999999997 159.906 L 301.205 152.911 z"
            stroke-linecap="round" />
    </g>
    <g transform="matrix(2.51 0 0 2.51 553.97 349.82)">
        <path
            style="stroke: none; stroke-width: 1; stroke-dasharray: none; stroke-linecap: butt; stroke-dashoffset: 0; stroke-linejoin: miter; stroke-miterlimit: 4; fill: rgb(243,125,89); fill-rule: nonzero; opacity: 1;"
            vector-effect="non-scaling-stroke" transform=" translate(-255.85, -165.27)"
            d="M 257.897 179.243 L 246.72299999999998 175.921 C 246.72299999999998 175.921 251.29899999999998 160.17 252.76299999999998 157.757 C 254.807 154.389 264.98699999999997 151.306 264.98699999999997 151.306 L 259.703 166.578 L 257.897 179.243 z"
            stroke-linecap="round" />
    </g>
    <g transform="matrix(2.51 0 0 2.51 710.07 460.99)">
        <path
            style="stroke: none; stroke-width: 1; stroke-dasharray: none; stroke-linecap: butt; stroke-dashoffset: 0; stroke-linejoin: miter; stroke-miterlimit: 4; fill: rgb(80,93,94); fill-rule: nonzero; opacity: 1;"
            vector-effect="non-scaling-stroke" transform=" translate(-317.71, -209.32)"
            d="M 324.762 219.923 L 318.309 204.279 L 311.788 198.709 L 310.658 202.65200000000002 C 315.976 208.293 324.762 219.923 324.762 219.923 z"
            stroke-linecap="round" />
    </g>
    <g transform="matrix(2.51 0 0 2.51 670.19 354.08)">
        <path
            style="stroke: none; stroke-width: 1; stroke-dasharray: none; stroke-linecap: butt; stroke-dashoffset: 0; stroke-linejoin: miter; stroke-miterlimit: 4; fill: rgb(80,93,94); fill-rule: nonzero; opacity: 1;"
            vector-effect="non-scaling-stroke" transform=" translate(-301.9, -166.99)"
            d="M 298.789 178.992 C 298.789 178.992 300.973 165.209 302.17199999999997 161.319 C 303.371 157.42999999999998 307.984 147.516 307.984 147.516 L 304.93199999999996 146.456 L 299.085 159.35199999999998 C 299.085 159.35199999999998 295.80899999999997 174.06699999999998 295.80899999999997 176.65499999999997 C 295.80899999999997 178.49399999999997 297.36199999999997 184.30999999999997 298.26199999999994 187.52499999999998 L 299.30699999999996 180.52799999999996 L 298.789 178.992 z"
            stroke-linecap="round" />
    </g>
    <g transform="matrix(2.51 0 0 2.51 584.71 936.26)">
        <path
            style="stroke: none; stroke-width: 1; stroke-dasharray: none; stroke-linecap: butt; stroke-dashoffset: 0; stroke-linejoin: miter; stroke-miterlimit: 4; fill: rgb(61,53,65); fill-rule: nonzero; opacity: 1;"
            vector-effect="non-scaling-stroke" transform=" translate(-268.06, -397.69)"
            d="M 266.237 383.72 L 280.632 381.245 L 280.632 411.979 L 255.531 414.128 C 255.531 414.128 254.606 405.368 260.764 403.87399999999997 C 268.053 402.106 269.724 405.01099999999997 269.724 405.01099999999997 L 266.237 383.72 z"
            stroke-linecap="round" />
    </g>
    <g transform="matrix(2.51 0 0 2.51 677.19 936.26)">
        <path
            style="stroke: none; stroke-width: 1; stroke-dasharray: none; stroke-linecap: butt; stroke-dashoffset: 0; stroke-linejoin: miter; stroke-miterlimit: 4; fill: rgb(61,53,65); fill-rule: nonzero; opacity: 1;"
            vector-effect="non-scaling-stroke" transform=" translate(-304.71, -397.69)"
            d="M 302.125 383.72 L 316.52 381.245 L 318.044 412.379 L 291.419 414.12800000000004 C 291.419 414.12800000000004 290.49399999999997 405.36800000000005 296.652 403.874 C 303.941 402.10600000000005 306.673 405.011 306.673 405.011 L 302.125 383.72 z"
            stroke-linecap="round" />
    </g>
    <g transform="matrix(2.51 0 0 2.51 685.37 383.69)" id="XMLID_4_">
        <polygon
            style="stroke: none; stroke-width: 1; stroke-dasharray: none; stroke-linecap: butt; stroke-dashoffset: 0; stroke-linejoin: miter; stroke-miterlimit: 4; fill: rgb(243,187,170); fill-rule: nonzero; opacity: 0.5;"
            vector-effect="non-scaling-stroke" points="-9.14,0.35 8.81,1.19 9.14,-1.19 " />
    </g>
</svg>